<?xml version="1.0" encoding="utf-8"?>
<!-- Generator: Adobe Illustrator 15.0.0, SVG Export Plug-In  -->
<!DOCTYPE svg PUBLIC "-//W3C//DTD SVG 1.1//EN" "http://www.w3.org/Graphics/SVG/1.1/DTD/svg11.dtd" [
	<!ENTITY ns_flows "http://ns.adobe.com/Flows/1.0/">
]>
<svg version="1.1"
	 xmlns="http://www.w3.org/2000/svg" xmlns:xlink="http://www.w3.org/1999/xlink" xmlns:a="http://ns.adobe.com/AdobeSVGViewerExtensions/3.0/"
	 x="0px" y="0px" width="20px" height="16px" viewBox="0 0 20 16" overflow="visible" enable-background="new 0 0 20 16"
	 xml:space="preserve">
<defs>
</defs>
<path fill="#48A6BC" d="M1,14h18c0.553,0,1,0.447,1,1s-0.447,1-1,1H1c-0.553,0-1-0.447-1-1S0.447,14,1,14z M2,0h16
	c1.104,0,2,0.896,2,2v10c0,0.553-0.447,1-1,1H1c-0.553,0-1-0.447-1-1V2C0,0.896,0.896,0,2,0z M18,11V2H2v9H18z"/>
</svg>
